<svg width="10" height="18" viewBox="0 0 10 18" fill="none" xmlns="http://www.w3.org/2000/svg">
<path fill-rule="evenodd" clip-rule="evenodd" d="M9.19264 1.05752C9.25084 1.11558 9.29702 1.18455 9.32853 1.26048C9.36004 1.33641 9.37626 1.41781 9.37626 1.50002C9.37626 1.58223 9.36004 1.66363 9.32853 1.73956C9.29702 1.81549 9.25084 1.88446 9.19264 1.94252L2.13389 9.00002L9.19264 16.0575C9.31 16.1749 9.37593 16.334 9.37593 16.5C9.37593 16.666 9.31 16.8252 9.19264 16.9425C9.07528 17.0599 8.91611 17.1258 8.75014 17.1258C8.58417 17.1258 8.425 17.0599 8.30764 16.9425L0.80764 9.44252C0.749436 9.38446 0.703258 9.31549 0.671749 9.23956C0.640241 9.16363 0.624023 9.08223 0.624023 9.00002C0.624023 8.91781 0.640241 8.83641 0.671749 8.76048C0.703258 8.68455 0.749436 8.61558 0.80764 8.55752L8.30764 1.05752C8.3657 0.999315 8.43467 0.953136 8.5106 0.921628C8.58653 0.89012 8.66793 0.873901 8.75014 0.873901C8.83235 0.873901 8.91375 0.89012 8.98968 0.921628C9.06561 0.953136 9.13458 0.999315 9.19264 1.05752Z" fill="white"/>
</svg>
